<svg version="1.1" viewBox="0.0 0.0 512.0 512.0" fill="none" stroke="none" stroke-linecap="square" stroke-miterlimit="10" xmlns:xlink="http://www.w3.org/1999/xlink" xmlns="http://www.w3.org/2000/svg"><clipPath id="p.0"><path d="m0 0l512.0 0l0 512.0l-512.0 0l0 -512.0z" clip-rule="nonzero"/></clipPath><g clip-path="url(#p.0)"><path fill="#000000" fill-opacity="0.0" d="m0 0l512.0 0l0 512.0l-512.0 0z" fill-rule="evenodd"/><path fill="#ffffff" d="m20.598425 256.0l0 0c0 -130.0087 105.392876 -235.40158 235.40158 -235.40158l0 0c62.432373 0 122.30768 24.801165 166.45404 68.947525c44.146362 44.146355 68.94754 104.021675 68.94754 166.45404l0 0c0 130.0087 -105.39288 235.40158 -235.40158 235.40158l0 0c-130.0087 0 -235.40158 -105.39288 -235.40158 -235.40158z" fill-rule="evenodd"/><path stroke="#000000" stroke-width="8.0" stroke-linejoin="round" stroke-linecap="butt" d="m20.598425 256.0l0 0c0 -130.0087 105.392876 -235.40158 235.40158 -235.40158l0 0c62.432373 0 122.30768 24.801165 166.45404 68.947525c44.146362 44.146355 68.94754 104.021675 68.94754 166.45404l0 0c0 130.0087 -105.39288 235.40158 -235.40158 235.40158l0 0c-130.0087 0 -235.40158 -105.39288 -235.40158 -235.40158z" fill-rule="evenodd"/><path fill="#000000" fill-opacity="0.0" d="m124.04724 387.51443l0 -263.90552" fill-rule="evenodd"/><path stroke="#000000" stroke-width="3.0" stroke-linejoin="round" stroke-linecap="butt" d="m124.04724 387.51443l0 -253.62425" fill-rule="evenodd"/><path fill="#000000" stroke="#000000" stroke-width="3.0" stroke-linecap="butt" d="m124.04724 133.89018l3.3737564 3.3737488l-3.3737564 -9.269302l-3.3737488 9.269302z" fill-rule="evenodd"/><path fill="#000000" fill-opacity="0.0" d="m124.04724 387.51443l263.90552 0" fill-rule="evenodd"/><path stroke="#000000" stroke-width="3.0" stroke-linejoin="round" stroke-linecap="butt" d="m124.04724 387.51443l253.62427 0" fill-rule="evenodd"/><path fill="#000000" stroke="#000000" stroke-width="3.0" stroke-linecap="butt" d="m377.6715 387.51443l-3.3737488 3.3737488l9.269287 -3.3737488l-9.269287 -3.3737488z" fill-rule="evenodd"/><path fill="#000000" fill-opacity="0.0" d="m124.92388 388.39108l56.598427 -98.01575" fill-rule="evenodd"/><path stroke="#ff9900" stroke-width="3.0" stroke-linejoin="round" stroke-linecap="butt" d="m124.92388 388.39108l56.598427 -98.01575" fill-rule="evenodd"/><path fill="#000000" fill-opacity="0.0" d="m180.15749 291.0761l39.905502 39.905518" fill-rule="evenodd"/><path stroke="#ff9900" stroke-width="3.0" stroke-linejoin="round" stroke-linecap="butt" d="m180.15749 291.0761l39.905502 39.905518" fill-rule="evenodd"/><path fill="#000000" fill-opacity="0.0" d="m219.87518 330.98163l111.055115 -192.34645" fill-rule="evenodd"/><path stroke="#ff9900" stroke-width="3.0" stroke-linejoin="round" stroke-linecap="butt" d="m219.87518 330.98163l111.055115 -192.34645" fill-rule="evenodd"/><path fill="#000000" fill-opacity="0.0" d="m126.67716 386.6378l78.07874 -20.913391" fill-rule="evenodd"/><path stroke="#6aa84f" stroke-width="3.0" stroke-linejoin="round" stroke-linecap="butt" d="m126.67716 386.6378l78.07874 -20.913391" fill-rule="evenodd"/><path fill="#000000" fill-opacity="0.0" d="m204.70604 365.5958l23.086609 -86.17322" fill-rule="evenodd"/><path stroke="#6aa84f" stroke-width="3.0" stroke-linejoin="round" stroke-linecap="butt" d="m204.70604 365.5958l23.086609 -86.17322" fill-rule="evenodd"/><path fill="#000000" fill-opacity="0.0" d="m227.79265 278.91077l106.45668 -61.480316" fill-rule="evenodd"/><path stroke="#6aa84f" stroke-width="3.0" stroke-linejoin="round" stroke-linecap="butt" d="m227.79265 278.91077l106.45668 -61.480316" fill-rule="evenodd"/><path fill="#000000" fill-opacity="0.0" d="m334.24933 217.43045l30.26773 -52.44095" fill-rule="evenodd"/><path stroke="#6aa84f" stroke-width="3.0" stroke-linejoin="round" stroke-linecap="butt" d="m334.24933 217.43045l30.26773 -52.44095" fill-rule="evenodd"/><path fill="#ffffff" fill-opacity="0.5112" d="m20.598425 256.0l0 0c0 -130.0087 105.392876 -235.40158 235.40158 -235.40158l0 0c62.432373 0 122.30768 24.801165 166.45404 68.947525c44.146362 44.146355 68.94754 104.021675 68.94754 166.45404l0 0c0 130.0087 -105.39288 235.40158 -235.40158 235.40158l0 0c-130.0087 0 -235.40158 -105.39288 -235.40158 -235.40158z" fill-rule="evenodd"/><path stroke="#000000" stroke-width="8.0" stroke-linejoin="round" stroke-linecap="butt" d="m20.598425 256.0l0 0c0 -130.0087 105.392876 -235.40158 235.40158 -235.40158l0 0c62.432373 0 122.30768 24.801165 166.45404 68.947525c44.146362 44.146355 68.94754 104.021675 68.94754 166.45404l0 0c0 130.0087 -105.39288 235.40158 -235.40158 235.40158l0 0c-130.0087 0 -235.40158 -105.39288 -235.40158 -235.40158z" fill-rule="evenodd"/><path fill="#000000" d="m162.02412 181.18526l-26.356155 150.4468l36.365265 0l10.874939 -60.850616l47.447998 0l4.8833466 -27.671951l-47.655807 0l5.749176 -32.97084l61.682404 0l5.125763 -28.953384zm160.45927 -2.3204346c-14.476837 0 -26.898743 3.2324371 -37.265747 9.697311c-10.343872 6.4417877 -16.508667 15.192459 -18.494324 26.251999c-0.5541382 3.2555237 -0.8312073 6.6611176 -0.8312073 10.216812c0 7.9425507 1.7663269 14.545959 5.29895 19.810211c3.5556946 5.24115 7.850281 9.31633 12.8836975 12.225525c5.033386 2.8861084 11.590698 5.9684753 19.671875 9.24707c5.95697 2.401245 10.528595 4.4561462 13.714874 6.164734c3.209381 1.7085571 5.8761597 3.8096313 8.000366 6.303253c2.1242065 2.4704895 3.1862793 5.472046 3.1862793 9.004639c0 4.964081 -1.5931396 9.016174 -4.779419 12.15625c-3.1862793 3.1170044 -7.3423157 4.6755066 -12.468079 4.6755066c-5.65683 0 -9.974487 -1.6277771 -12.952972 -4.883301c-2.978485 -3.278595 -4.259918 -7.757843 -3.8443298 -13.437683l-38.720337 0c0.13851929 14.338135 5.0334167 25.732483 14.684631 34.182983c9.651215 8.427429 23.123688 12.641144 40.41739 12.641144c10.505524 0 19.798859 -1.7316589 27.880035 -5.194977c8.081177 -3.4864197 14.569183 -8.138824 19.46408 -13.957214c4.894867 -5.8183594 7.9772644 -12.271698 9.247162 -19.359985c0.5772095 -3.4171143 0.8658447 -6.8919983 0.8658447 -10.424591c0 -8.081085 -1.8471375 -14.742218 -5.541382 -19.983368c-3.671173 -5.2642517 -8.035004 -9.350983 -13.091492 -12.260178c-5.0334167 -2.909195 -11.590698 -5.9915466 -19.671875 -9.24707c-5.818451 -2.4243317 -10.286163 -4.409973 -13.403198 -5.9569244c-3.117035 -1.5700378 -5.703003 -3.5210419 -7.7579346 -5.853012c-2.0549011 -2.3550568 -3.082367 -5.1603546 -3.082367 -8.415878c0 -4.8255615 1.5238647 -8.542862 4.5716248 -11.151901c3.04776 -2.6321259 6.915161 -3.9481964 11.602234 -3.9481964c5.1026917 0 8.958557 1.4546051 11.567627 4.3638c2.632141 2.9091797 3.8096924 6.845825 3.5326233 11.809921l39.135956 0c-0.4156189 -13.760925 -5.0565186 -24.647308 -13.922699 -32.659134c-8.866211 -8.011826 -22.165497 -12.017746 -39.89789 -12.017746z" fill-rule="evenodd"/></g></svg>